<?xml version="1.0" encoding="UTF-8"?>
<svg version="1.1" viewBox="0 0 2000 2000" width="1280" height="1280" xmlns="http://www.w3.org/2000/svg">
<path transform="translate(0)" d="m0 0h2e3v2e3h-2e3z" fill="#FEFEFE"/>
<path transform="translate(891,619)" d="m0 0h154l2 1 1 93h85l1 1 1 131 35 1 1 189 4 1h81v-80l-12-2-16-7-14-11-9-11-7-14-3-13v-14l1-1h12l12 3 16 8 11 9 9 12 7 14 3 9 2-6 5-13 7-11 12-12 13-8 12-4 7-1h11l2 3v10l-3 14-8 16-11 12-10 8-15 7-12 3-1 6v67l-2 5-10 7-12 6-18 6-19 3h-66l-1-1-1-186-1-1h-12l-1 187-1 1h-19l-1-1-1-187h-14v187l-2 1h-18l-1-1v-208l1-1 34-1v-109l-63-1-1 320-1 1h-109l-1-1-1-248h-31l-1 1-1 247-1 1h-18l-1-1-1-248h-31l-1 232-1 17h-61l-19-2-14-4-19-8-13-9-1-2-1-74-18-6-12-7-10-9-8-9-8-15-3-12v-15l1-1h12l12 3 16 8 11 9 10 14 5 10 4 11 2 1v-7l4-12 8-12 12-12 13-8 12-4 7-1h11l1 1 1 13-4 15-6 12-9 11-10 9-10 6-15 5-5 1-1 5v75h85v-251l1-1h53v-163l1-1z" fill="#2F9A6D"/>
<path transform="translate(905,640)" d="m0 0h117l5 1 1 32v167l-1 196-65 1-4-2-1-250-53-1-1-1v-139z" fill="#FEFEFE"/>
<path transform="translate(782,504)" d="m0 0h435l14 2 14 4 13 5 11 6 7 5 1 24v74l-2 1h-18l-1-1v-100l-89-1h-369l-54 1-1 100-1 1h-19l-1-1v-95l4-5 15-9 18-7 14-3z" fill="#2F9A6D"/>
<path transform="translate(1234,1161)" d="m0 0h64l18 1 15 4 9 6 5 4 7 10 4 10 1 4v20l-3 11-6 12-10 11-8 5-12 4v2l10 11 14 19 10 14 8 10 9 10 9 8 12 6 10 2v2l-2 1h-16l-13-2-9-4-11-7-9-9-13-18-15-22-12-16-9-9-10-4v-3l20-1 13-3 10-6 7-8 4-9 1-4v-20l-3-11-6-10-8-7-9-3-38-1 1 163 5 7 8 3 6 2-3 2h-53l-2-1v-2l13-3 5-6 1-4v-155l-4-7-10-5-6-2z" fill="#353D3C"/>
<path transform="translate(264,1161)" d="m0 0h65l17 1 14 4 9 5 6 5 7 10 4 10 1 4v21l-4 13-7 12-8 8-10 6-5 2h-7l7 8 11 14 12 17 13 17 9 10 7 7 12 7 13 3 1 2-2 1h-19l-11-2-11-5-10-7-7-7-14-19-13-19-10-14-11-12-4-3-8-3v-3l20-1 15-4 9-6 6-7 4-9 1-4v-20l-4-13-4-7-9-8-8-3-15-1h-24l1 162 3 6 6 4 10 2v2l-3 1h-52l-3-1v-2l12-3 5-4 2-5v-160l-3-1-5-5-11-4z" fill="#353C3C"/>
<path transform="translate(1197,805)" d="m0 0h8l16 4 16 8 12 11 7 10 7 14 2 9h2l2-10 5-12 8-11 8-8 12-8 14-5 15-2 5 1 1 3v9l-3 14-4 9-6 10-9 10-11 8-12 6-13 3h-11l-4-1-1 1h-10l-14-3-10-5-11-8-8-8-7-10-5-11-3-12v-15z" fill="#2F9A6D"/>
<path transform="translate(1198,728)" d="m0 0 15 1 16 6 11 7 8 7 9 13 5 10 3 12h2l2-11 5-11 7-10 10-10 11-7 9-4 7-2 17-1 1 2v17l-5 15-7 11-9 10-9 8-13 6-9 3-15 1-4-1-9 1-13-2-12-5-10-7-9-8-8-11-7-15-2-10v-13z" fill="#2F9A6D"/>
<path transform="translate(670,728)" d="m0 0 13 2 11 4 12 7 7 6 8 10 7 12 6 16 3-15 7-13 11-12 10-8 13-6 7-2 17-1 1 1v19l-6 16-9 13-10 10-11 7-12 5-17 3-6-2-9 1-13-2-14-6-9-7-8-7-9-13-5-10-3-12v-15z" fill="#2F9A6D"/>
<path transform="translate(664,805)" d="m0 0h9l15 4 16 8 12 11 10 15 8 20 2-12 5-12 9-12 7-7 10-7 12-5 9-2 13-1 2 1 1 11-2 11-4 11-6 10-9 11-12 9-12 6-14 3h-25l-14-3-15-8-12-11-9-12-5-11-3-11v-16z" fill="#2F9A6D"/>
<path transform="translate(792,1161)" d="m0 0h59l-1 3-8 4-3 4 1 8 9 25 40 100 5 12 3-4 11-26 15-36 12-29 10-24 7-19v-8l-4-4-8-4v-2h51l3 2-6 2-8 3-7 6-5 9-9 19-16 36-18 40-10 23-4 8-13 30-4 12h-3l-18-40-20-46-17-39-19-43-5-9-7-6-14-5z" fill="#35393A"/>
<path transform="translate(1151,1158)" d="m0 0h3v31l-3 1-3-12-4-5-2-1-60-1v81l51-1 5-8 2-8h2v42l-3-3-3-8-5-5-49-1 1 79h26l22-1 12-3 8-6 7-8 8-16h2l-1 8-12 33-1 1-9 1h-99l-2-1v-2l12-3 5-5 2-4v-157l-3-5-5-4-11-4v-2h38l55-1z" fill="#35403E"/>
<path transform="translate(589,1158)" d="m0 0h2v33h-2l-3-12-4-5v-2l-35-1h-28v81h51l2-4 3-4 2-9h2v42h-2l-3-10-4-5v-2h-51l1 79h25l23-1 9-2 8-4 8-8 6-10 5-9 2-1-2 10-9 24-4 9-10 1h-98l-2-1v-2l13-3 5-6 1-4v-156l-3-5-5-4-10-3-1-3h48l47-1z" fill="#353F3D"/>
<path transform="translate(1722,1158)" d="m0 0h2v32h-3l-2-12-2-5-8-2h-55l-1 81 52-1v-2l2-1 3-12h3v40h-3l-3-10-4-5-50-1v80l48-2 13-3 7-5h2l2-4 7-10 6-12 2 1-3 11-9 25-3 6-10 1h-98l-2-1v-2l12-3 5-5 2-5v-159h-2l-4-5-12-4-1-3h46l49-1z" fill="#353D3C"/>
<path transform="translate(1490,1159)" d="m0 0h26l19 2 1 32h-3l-4-12-5-7-8-5-8-2h-11l-10 3-8 6-6 8-2 7v14l5 10 9 10 24 22 16 15 13 13 6 12 2 8v15l-3 12-6 11-6 7-11 7-9 3-6 1h-22l-16-4-12-6-4-4-1-3v-16l3-17h3l2 15 5 12 8 9 11 5 6 1h10l13-4 10-7 6-10 2-6v-16l-4-10-9-10-17-16-13-12-15-14-7-7-6-10-3-9v-16l4-13 7-11 10-8 10-4z" fill="#353A3B"/>
<path transform="translate(731,648)" d="m0 0 5 1 8 9 8 16 3 10 1 7v11l-3 15-4 10-7 12-7 7-5-1-8-8-7-12-4-13-1-4v-23l5-16 6-11 5-6z" fill="#2F9A6D"/>
<path transform="translate(1264,648)" d="m0 0 5 1 7 8 8 14 4 14 1 15-3 17-4 10-7 12-7 7-5-1-5-5-6-7-7-16-2-10v-20l3-13 7-14 6-8z" fill="#2F9A6D"/>
<path transform="translate(666,1265)" d="m0 0h81v10l-2 1h-79l-1-10z" fill="#353538"/>
</svg>
